<?xml version="1.0" encoding="UTF-8" standalone="no"?>
<!-- Created with Inkscape (http://www.inkscape.org/) -->

<svg
   xmlns:dc="http://purl.org/dc/elements/1.1/"
   xmlns:cc="http://creativecommons.org/ns#"
   xmlns:rdf="http://www.w3.org/1999/02/22-rdf-syntax-ns#"
   xmlns:svg="http://www.w3.org/2000/svg"
   xmlns="http://www.w3.org/2000/svg"
   xmlns:sodipodi="http://sodipodi.sourceforge.net/DTD/sodipodi-0.dtd"
   xmlns:inkscape="http://www.inkscape.org/namespaces/inkscape"
   id="svg2985"
   version="1.1"
   inkscape:version="0.48.2 r9819"
   width="360"
   height="360"
   xml:space="preserve"
   sodipodi:docname="CuriosityHacked_logo_2013.svg"><sodipodi:namedview
     pagecolor="#ffffff"
     bordercolor="#666666"
     borderopacity="1"
     objecttolerance="10"
     gridtolerance="10"
     guidetolerance="10"
     inkscape:pageopacity="0"
     inkscape:pageshadow="2"
     inkscape:window-width="1554"
     inkscape:window-height="978"
     id="namedview2987"
     showgrid="false"
     inkscape:zoom="4"
     inkscape:cx="216.11073"
     inkscape:cy="164.2164"
     inkscape:window-x="0"
     inkscape:window-y="0"
     inkscape:window-maximized="0"
     inkscape:current-layer="g2993" /><metadata
     id="metadata2991"><rdf:RDF><cc:Work
         rdf:about=""><dc:format>image/svg+xml</dc:format><dc:type
           rdf:resource="http://purl.org/dc/dcmitype/StillImage" /><dc:title></dc:title></cc:Work></rdf:RDF></metadata><defs
     id="defs2989"><clipPath
   id="clipPath2999"
   clipPathUnits="userSpaceOnUse"><path
     id="path3001"
     d="M 0,288 288,288 288,0 0,0 0,288 z" /></clipPath>














</defs><g
     transform="matrix(1.25,0,0,-1.25,0,360)"
     inkscape:label="CuriosityHacked_logo_2013_ol"
     inkscape:groupmode="layer"
     id="g2993">









































<g
   id="g2995"><g
     clip-path="url(#clipPath2999)"
     id="g2997"><g
       transform="translate(233.2773,138.5996)"
       id="g3003"><path
         inkscape:connector-curvature="0"
         id="path3005"
         style="fill:#badd16;fill-opacity:1;fill-rule:nonzero;stroke:none"
         d="m 0,0 c 0,-44.874 -36.381,-81.253 -81.254,-81.253 -44.877,0 -81.254,36.379 -81.254,81.253 0,44.876 36.377,81.254 81.254,81.254 C -36.381,81.254 0,44.876 0,0" /></g><g
       transform="translate(148.1621,142.0684)"
       id="g3007"><path
         inkscape:connector-curvature="0"
         id="path3009"
         style="fill:#9bbc21;fill-opacity:1;fill-rule:nonzero;stroke:none"
         d="m 0,0 -17.772,85.071 c 11.745,2.453 22.883,2.512 34.655,0.18 L 0,0 z" /></g><g
       transform="translate(148.1621,142.0684)"
       id="g3011"><path
         inkscape:connector-curvature="0"
         id="path3013"
         style="fill:#9bbc21;fill-opacity:1;fill-rule:nonzero;stroke:none"
         d="m 0,0 -72.72,47.587 c 6.57,10.041 14.403,17.956 24.374,24.631 L 0,0 z" /></g><g
       transform="translate(148.1621,142.0684)"
       id="g3015"><path
         inkscape:connector-curvature="0"
         id="path3017"
         style="fill:#9bbc21;fill-opacity:1;fill-rule:nonzero;stroke:none"
         d="m 0,0 -85.071,-17.771 c -2.454,11.745 -2.511,22.882 -0.18,34.65 L 0,0 z" /></g><g
       transform="translate(148.1621,142.0684)"
       id="g3019"><path
         inkscape:connector-curvature="0"
         id="path3021"
         style="fill:#9bbc21;fill-opacity:1;fill-rule:nonzero;stroke:none"
         d="m 0,0 -47.588,-72.72 c -10.04,6.571 -17.957,14.403 -24.63,24.375 L 0,0 z" /></g><g
       transform="translate(148.1621,142.0684)"
       id="g3023"><path
         inkscape:connector-curvature="0"
         id="path3025"
         style="fill:#9bbc21;fill-opacity:1;fill-rule:nonzero;stroke:none"
         d="m 0,0 17.773,-85.071 c -11.746,-2.453 -22.884,-2.51 -34.653,-0.18 L 0,0 z" /></g><g
       transform="translate(148.1621,142.0684)"
       id="g3027"><path
         inkscape:connector-curvature="0"
         id="path3029"
         style="fill:#9bbc21;fill-opacity:1;fill-rule:nonzero;stroke:none"
         d="M 0,0 72.721,-47.587 C 66.15,-57.628 58.318,-65.544 48.346,-72.218 L 0,0 z" /></g><g
       transform="translate(148.1621,142.0684)"
       id="g3031"><path
         inkscape:connector-curvature="0"
         id="path3033"
         style="fill:#9bbc21;fill-opacity:1;fill-rule:nonzero;stroke:none"
         d="m 0,0 85.072,17.771 c 2.453,-11.744 2.51,-22.881 0.18,-34.653 L 0,0 z" /></g><g
       transform="translate(148.1621,142.0684)"
       id="g3035"><path
         inkscape:connector-curvature="0"
         id="path3037"
         style="fill:#9bbc21;fill-opacity:1;fill-rule:nonzero;stroke:none"
         d="M 0,0 47.588,72.721 C 57.629,66.151 65.545,58.317 72.219,48.346 L 0,0 z" /></g><g
       transform="translate(149.0352,243.1875)"
       id="g3039"><path
         inkscape:connector-curvature="0"
         id="path3041"
         style="fill:#000000;fill-opacity:1;fill-rule:nonzero;stroke:none"
         d="m 0,0 c -57.132,0 -103.611,-46.479 -103.611,-103.611 0,-57.13 46.479,-103.612 103.611,-103.612 57.133,0 103.613,46.482 103.613,103.612 C 103.613,-46.479 57.133,0 0,0 m 0,-211.611 c -59.552,0 -108,48.45 -108,108 0,59.551 48.448,108 108,108 59.553,0 108.002,-48.449 108.002,-108 0,-59.55 -48.449,-108 -108.002,-108" /></g><g
       transform="translate(149.0352,208.9707)"
       id="g3043"><path
         inkscape:connector-curvature="0"
         id="path3045"
         style="fill:#000000;fill-opacity:1;fill-rule:nonzero;stroke:none"
         d="m 0,0 c -38.265,0 -69.396,-31.129 -69.396,-69.396 0,-38.264 31.131,-69.393 69.396,-69.393 38.268,0 69.398,31.129 69.398,69.393 C 69.398,-31.129 38.268,0 0,0 m 0,-168.044 c -54.396,0 -98.65,44.254 -98.65,98.648 0,54.397 44.254,98.651 98.65,98.651 54.396,0 98.654,-44.254 98.654,-98.651 0,-54.394 -44.258,-98.648 -98.654,-98.648" /></g><g
       transform="translate(185.7109,110.9629)"
       id="g3047"><path
         inkscape:connector-curvature="0"
         id="path3049"
         style="fill:#000000;fill-opacity:1;fill-rule:nonzero;stroke:none"
         d="m 0,0 c 0,-2.975 -3.271,-5.384 -7.307,-5.384 l -58.523,0 c -4.036,0 -7.309,2.409 -7.309,5.384 l 0,43.09 c 0,2.973 3.273,5.383 7.309,5.383 l 58.523,0 C -3.271,48.473 0,46.063 0,43.09 L 0,0 z" /></g><g
       transform="translate(175.7949,135.1865)"
       id="g3051"><path
         inkscape:connector-curvature="0"
         id="path3053"
         style="fill:#9bbc21;fill-opacity:1;fill-rule:nonzero;stroke:none"
         d="m 0,0 c 0,-5.762 -4.67,-10.433 -10.432,-10.433 -5.761,0 -10.433,4.671 -10.433,10.433 0,5.762 4.672,10.433 10.433,10.433 C -4.67,10.433 0,5.762 0,0" /></g><g
       transform="translate(167.5723,137.8652)"
       id="g3055"><path
         inkscape:connector-curvature="0"
         id="path3057"
         style="fill:#ffffff;fill-opacity:1;fill-rule:nonzero;stroke:none"
         d="m 0,0 c 0,-2.311 -1.873,-4.184 -4.184,-4.184 -2.308,0 -4.181,1.873 -4.181,4.184 0,2.31 1.873,4.182 4.181,4.182 C -1.873,4.182 0,2.31 0,0" /></g><g
       transform="translate(169.9219,131.9424)"
       id="g3059"><path
         inkscape:connector-curvature="0"
         id="path3061"
         style="fill:#ffffff;fill-opacity:1;fill-rule:nonzero;stroke:none"
         d="m 0,0 c 0,-0.96 -0.779,-1.739 -1.74,-1.739 -0.961,0 -1.739,0.779 -1.739,1.739 0,0.961 0.778,1.739 1.739,1.739 C -0.779,1.739 0,0.961 0,0" /></g><g
       transform="translate(143.7861,135.1865)"
       id="g3063"><path
         inkscape:connector-curvature="0"
         id="path3065"
         style="fill:#9bbc21;fill-opacity:1;fill-rule:nonzero;stroke:none"
         d="m 0,0 c 0,-5.762 -4.671,-10.433 -10.433,-10.433 -5.761,0 -10.432,4.671 -10.432,10.433 0,5.762 4.671,10.433 10.432,10.433 C -4.671,10.433 0,5.762 0,0" /></g><g
       transform="translate(134.9985,137.8652)"
       id="g3067"><path
         inkscape:connector-curvature="0"
         id="path3069"
         style="fill:#ffffff;fill-opacity:1;fill-rule:nonzero;stroke:none"
         d="m 0,0 c 0,-2.311 -1.873,-4.184 -4.183,-4.184 -2.309,0 -4.182,1.873 -4.182,4.184 0,2.31 1.873,4.182 4.182,4.182 C -1.873,4.182 0,2.31 0,0" /></g><g
       transform="translate(137.3486,131.9424)"
       id="g3071"><path
         inkscape:connector-curvature="0"
         id="path3073"
         style="fill:#ffffff;fill-opacity:1;fill-rule:nonzero;stroke:none"
         d="m 0,0 c 0,-0.96 -0.779,-1.739 -1.739,-1.739 -0.96,0 -1.739,0.779 -1.739,1.739 0,0.961 0.779,1.739 1.739,1.739 C -0.779,1.739 0,0.961 0,0" /></g><g
       transform="translate(115.1006,133.0527)"
       id="g3075"><path
         inkscape:connector-curvature="0"
         id="path3077"
         style="fill:#000000;fill-opacity:1;fill-rule:nonzero;stroke:none"
         d="m 0,0 c 0,-3.585 -2.241,-6.49 -5.005,-6.49 -2.764,0 -5.005,2.905 -5.005,6.49 l 0,10.422 c 0,3.585 2.241,6.491 5.005,6.491 C -2.241,16.913 0,14.007 0,10.422 L 0,0 z" /></g><g
       transform="translate(107.0645,136.8008)"
       id="g3079"><path
         inkscape:connector-curvature="0"
         id="path3081"
         style="fill:#000000;fill-opacity:1;fill-rule:nonzero;stroke:none"
         d="m 0,0 c 0,-2.675 -1.672,-4.845 -3.736,-4.845 -2.064,0 -3.736,2.17 -3.736,4.845 l 0,2.926 c 0,2.675 1.672,4.845 3.736,4.845 C -1.672,7.771 0,5.601 0,2.926 L 0,0 z" /></g><g
       transform="translate(184.0449,133.0527)"
       id="g3083"><path
         inkscape:connector-curvature="0"
         id="path3085"
         style="fill:#000000;fill-opacity:1;fill-rule:nonzero;stroke:none"
         d="m 0,0 c 0,-3.585 2.24,-6.49 5.006,-6.49 2.762,0 5.004,2.905 5.004,6.49 l 0,10.422 c 0,3.585 -2.242,6.491 -5.004,6.491 C 2.24,16.913 0,14.007 0,10.422 L 0,0 z" /></g><g
       transform="translate(192.0801,136.8008)"
       id="g3087"><path
         inkscape:connector-curvature="0"
         id="path3089"
         style="fill:#000000;fill-opacity:1;fill-rule:nonzero;stroke:none"
         d="m 0,0 c 0,-2.675 1.674,-4.845 3.736,-4.845 2.063,0 3.737,2.17 3.737,4.845 l 0,2.926 C 7.473,5.601 5.799,7.771 3.736,7.771 1.674,7.771 0,5.601 0,2.926 L 0,0 z" /></g><g
       transform="translate(163.3223,153.6709)"
       id="g3091"><path
         inkscape:connector-curvature="0"
         id="path3093"
         style="fill:#000000;fill-opacity:1;fill-rule:nonzero;stroke:none"
         d="M 0,0 C -1.063,-1.333 -3.006,-1.555 -4.34,-0.493 L -5.889,0.739 C -7.223,1.8 -7.441,3.744 -6.381,5.078 -5.318,6.415 7.324,20.076 8.658,19.014 l 1.547,-1.231 C 11.539,16.721 1.061,1.336 0,0" /></g><g
       transform="translate(170.7383,174.5498)"
       id="g3095"><path
         inkscape:connector-curvature="0"
         id="path3097"
         style="fill:#000000;fill-opacity:1;fill-rule:nonzero;stroke:none"
         d="M 0,0 C -1.072,-1.348 -0.85,-3.312 0.5,-4.385 1.848,-5.458 3.813,-5.235 4.885,-3.888 5.959,-2.54 5.736,-0.576 4.387,0.498 3.037,1.572 1.076,1.349 0,0" /></g><g
       transform="translate(173.5898,174.4658)"
       id="g3099"><path
         inkscape:connector-curvature="0"
         id="path3101"
         style="fill:#000000;fill-opacity:1;fill-rule:nonzero;stroke:none"
         d="m 0,0 c -0.709,1.143 0.557,2.763 1.225,3.701 0.8,1.127 1.896,2.101 3.343,2.174 1.305,0.065 2.364,-0.033 3.481,0.702 0.908,0.595 1.859,1.483 2.39,2.438 0.047,0.083 0.073,0.139 0.129,0.209 C 9.891,8.393 10.285,7.043 10.262,6.07 10.232,4.92 10.078,3.831 9.486,2.814 8.721,1.5 7.734,0.26 6.447,-0.577 5.369,-1.276 3.943,-2.051 2.625,-2.063 1.807,-2.07 0.916,-1.768 0.32,-1.188 c -0.568,0.551 -0.425,1.122 -0.383,1.875" /></g><g
       transform="translate(131.165,187.96)"
       id="g3103"><path
         inkscape:connector-curvature="0"
         id="path3105"
         style="fill:#000000;fill-opacity:1;fill-rule:nonzero;stroke:none"
         d="M 0,0 2.62,-4.521 C 2.705,-4.668 2.768,-4.945 2.691,-5.258 1.63,-7.35 -0.268,-8.007 -2.842,-7.845 -3.386,-7.647 -4.087,-7.2 -4.078,-6.962 l -2.415,4.417 c -0.823,0.401 -1.356,-1.693 -0.537,-5.395 0.77,-4.31 3.85,-5.547 10.058,-4.482 4.68,3.273 4.415,6.727 3.052,8.175 C 3.395,-0.834 0.01,1.419 0,0" /></g><g
       transform="translate(139.8428,158.6396)"
       id="g3107"><path
         inkscape:connector-curvature="0"
         id="path3109"
         style="fill:#000000;fill-opacity:1;fill-rule:nonzero;stroke:none"
         d="M 0,0 C 0.356,-1.667 -1.489,-1.496 -3.156,-1.853 L -5.09,-2.266 c -1.668,-0.355 -3.309,0.708 -3.666,2.375 L -6.09,0.032 c -0.423,1.428 -2.037,8.615 -3.434,13.283 -0.508,1.695 -2.151,3 -2.916,3.489 -2.688,1.71 -1.081,2.076 -2.368,2.799 -0.948,0.532 4.532,0.908 4.84,0.973 l 2.707,0.457 c 0.437,-0.114 4.664,-0.869 4.214,-1.776 -0.545,-1.098 -0.876,-3.255 -0.55,-4.853 C -2.753,10.283 -0.223,1.048 0,0" /></g></g></g><g
   transform="matrix(0.62434601,0.78114791,0.78114791,-0.62434601,0,0)"
   style="font-size:12px"
   id="text3111"><path
     d="m 194.67246,-54.747133 c 0.0373,2.436138 0.8018,4.441362 2.29344,6.015678 1.49163,1.57432 3.48646,2.388884 5.9845,2.443693 1.38664,-0.03416 2.56204,-0.273272 3.5262,-0.717338 0.96414,-0.444065 1.69772,-0.888131 2.20073,-1.332198 0.50299,-0.444063 0.7561,-0.683175 0.75934,-0.717336 l -1.56487,-2.131853 c -0.004,0.02632 -0.20021,0.210558 -0.58882,0.552702 -0.38864,0.342153 -0.9461,0.684302 -1.67239,1.026448 -0.72631,0.342152 -1.59792,0.526386 -2.61484,0.552703 -1.49825,-0.04016 -2.73711,-0.594856 -3.71656,-1.664093 -0.97947,-1.069228 -1.48692,-2.412029 -1.52235,-4.028406 0.0345,-1.694322 0.53249,-3.017278 1.494,-3.968874 0.9615,-0.951572 2.17956,-1.435396 3.6542,-1.451474 0.75407,-0.0019 1.48548,0.137979 2.19422,0.419566 0.70871,0.281614 1.08859,0.7163 1.13963,1.304059 l 0,0.907171 2.69884,0 0,-1.791663 c -0.0371,-0.908417 -0.41147,-1.626594 -1.12305,-2.154531 -0.71161,-0.527908 -1.53786,-0.903376 -2.47876,-1.126405 -0.94092,-0.222997 -1.77389,-0.331353 -2.49892,-0.325069 -2.38417,0.05057 -4.32891,0.833952 -5.83425,2.350141 -1.50533,1.516216 -2.2821,3.461907 -2.33029,5.837079 z"
     style="font-size:22.67957115px;font-variant:normal;font-weight:600;font-stretch:normal;writing-mode:lr-tb;fill:#ffffff;fill-opacity:1;fill-rule:nonzero;stroke:none;font-family:Museo 700;-inkscape-font-specification:Museo-700"
     id="path3302" /></g><g
   transform="matrix(0.80528928,0.59288209,0.59288209,-0.80528928,0,0)"
   style="font-size:12px"
   id="text3115"><path
     d="m 196.50362,-105.61453 c 0.025,1.8082 0.6043,3.25495 1.7378,4.34024 1.13348,1.0853 2.67094,1.641885 4.61239,1.669763 1.91969,-0.02788 3.44393,-0.584463 4.5727,-1.669763 1.12876,-1.08529 1.70613,-2.53204 1.73213,-4.34024 l 0,-7.34808 c 9.3e-4,-0.15969 0.0444,-0.28253 0.13041,-0.36854 0.086,-0.086 0.20882,-0.12945 0.36854,-0.13041 l 0.97521,0 0,-2.51739 -2.90295,0 c -0.54053,-0.002 -0.93364,0.12144 -1.17932,0.37137 -0.24571,0.24996 -0.36666,0.64023 -0.36287,1.17082 l 0,8.70883 c -0.0137,1.07255 -0.32083,1.89845 -0.92134,2.47771 -0.60054,0.57927 -1.41227,0.87221 -2.43519,0.87882 -1.02294,-0.007 -1.83466,-0.29908 -2.43519,-0.87598 -0.60053,-0.5769 -0.90764,-1.39619 -0.92134,-2.45787 l 0,-8.73151 c 0.004,-0.53059 -0.11718,-0.92086 -0.36287,-1.17082 -0.24569,-0.24993 -0.6388,-0.37372 -1.17932,-0.37137 l -2.90295,0 0,2.51739 0.97521,0 c 0.1597,9.6e-4 0.28255,0.0444 0.36854,0.13041 0.086,0.086 0.12946,0.20885 0.13041,0.36854 z"
     style="font-size:22.67955208px;font-variant:normal;font-weight:600;font-stretch:normal;writing-mode:lr-tb;fill:#ffffff;fill-opacity:1;fill-rule:nonzero;stroke:none;font-family:Museo 700;-inkscape-font-specification:Museo-700"
     id="path3296" /></g><g
   transform="matrix(0.92802352,0.37252161,0.37252161,-0.92802352,0,0)"
   style="font-size:12px"
   id="text3119"><path
     d="m 185.40755,-149.86386 2.97097,0 0,-6.00999 1.49683,0 c 0.40916,-0.008 0.72478,0.0369 0.94686,0.13608 0.22206,0.0992 0.41294,0.30334 0.57265,0.61234 l 2.0638,4.05957 c 0.24663,0.49658 0.53579,0.82448 0.86748,0.98371 0.33167,0.15923 0.79093,0.23199 1.37776,0.21829 l 1.56487,0 0,-2.51739 -0.29483,0 c -0.24996,0.008 -0.47014,-0.0194 -0.66053,-0.0822 -0.19043,-0.0628 -0.34824,-0.20931 -0.47343,-0.43941 l -1.56487,-3.10705 c -0.16207,-0.29199 -0.33122,-0.50177 -0.50744,-0.62935 -0.17625,-0.12757 -0.27169,-0.18993 -0.28633,-0.1871 l 0,-0.0454 c 0.40916,-0.0548 0.94023,-0.41578 1.59322,-1.08294 0.65295,-0.66713 1.01393,-1.71982 1.08293,-3.15807 -0.0246,-1.53178 -0.4914,-2.72055 -1.40044,-3.56631 -0.90907,-0.84573 -2.11296,-1.27474 -3.61166,-1.28704 l -7.21199,0 0,2.51739 1.47415,0 z m 2.97097,-8.55006 0,-5.03478 2.404,0 c 0.73234,0.005 1.3031,0.22208 1.71228,0.65203 0.40916,0.42997 0.61705,1.0442 0.62368,1.84268 -0.006,0.81032 -0.21547,1.43494 -0.62935,1.87387 -0.41391,0.43895 -0.9979,0.66101 -1.75197,0.6662 z"
     style="font-size:22.67948914px;font-variant:normal;font-weight:600;font-stretch:normal;writing-mode:lr-tb;fill:#ffffff;fill-opacity:1;fill-rule:nonzero;stroke:none;font-family:Museo 700;-inkscape-font-specification:Museo-700"
     id="path3299" /></g><g
   transform="matrix(0.98293811,0.18393658,0.18393658,-0.98293811,0,0)"
   style="font-size:12px"
   id="text3123"><path
     d="m 169.06599,-185.62868 6.03268,0 0,-2.5174 -1.61022,0 0,-11.06748 1.61022,0 0,-2.51739 -6.03268,0 0,2.51739 1.61023,0 0,11.06748 -1.61023,0 z"
     style="font-size:22.67955589px;font-variant:normal;font-weight:600;font-stretch:normal;writing-mode:lr-tb;fill:#ffffff;fill-opacity:1;fill-rule:nonzero;stroke:none;font-family:Museo 700;-inkscape-font-specification:Museo-700"
     id="path3290" /></g><g
   transform="matrix(0.99948638,-0.03204649,-0.03204649,-0.99948638,0,0)"
   style="font-size:12px"
   id="text3127"><path
     d="m 136.21067,-228.28006 c 0.0506,2.42527 0.84527,4.42388 2.38415,5.99583 1.53888,1.57196 3.51859,2.38558 5.93913,2.44086 2.42053,-0.0553 4.40024,-0.8689 5.93913,-2.44086 1.53887,-1.57195 2.33359,-3.57056 2.38416,-5.99583 -0.0506,-2.35627 -0.84529,-4.30007 -2.38416,-5.8314 -1.53889,-1.53131 -3.5186,-2.32414 -5.93913,-2.37849 -2.42054,0.0543 -4.40025,0.84718 -5.93913,2.37849 -1.53888,1.53133 -2.3336,3.47513 -2.38415,5.8314 z m 3.08438,0 c 0.0368,-1.57619 0.54713,-2.86891 1.53084,-3.87815 0.98371,-1.00921 2.21973,-1.53084 3.70806,-1.56487 1.48832,0.034 2.72434,0.55566 3.70806,1.56487 0.9837,1.00924 1.49398,2.30195 1.53085,3.87815 -0.0369,1.6452 -0.54715,2.99273 -1.53085,4.04258 -0.98372,1.04986 -2.21974,1.59228 -3.70806,1.62724 -1.48833,-0.035 -2.72435,-0.57738 -3.70806,-1.62724 -0.98371,-1.04985 -1.494,-2.39738 -1.53084,-4.04258 z"
     style="font-size:22.67954826px;font-variant:normal;font-weight:600;font-stretch:normal;writing-mode:lr-tb;fill:#ffffff;fill-opacity:1;fill-rule:nonzero;stroke:none;font-family:Museo 700;-inkscape-font-specification:Museo-700"
     id="path3293" /></g><g
   transform="matrix(0.96088812,-0.27693684,-0.27693684,-0.96088812,0,0)"
   style="font-size:12px"
   id="text3131"><path
     d="m 99.09171,-253.46759 c 0.0024,0.0308 0.216852,0.24639 0.643418,0.64678 0.426562,0.40038 1.050942,0.80077 1.873142,1.20116 0.82219,0.40038 1.82791,0.61598 3.01718,0.64678 1.7014,-0.0373 3.01585,-0.50698 3.94335,-1.40895 0.92748,-0.90197 1.39713,-2.01231 1.40895,-3.33102 -0.0395,-1.29732 -0.43399,-2.30158 -1.18357,-3.01279 -0.74961,-0.7112 -1.61756,-1.2718 -2.60387,-1.68181 -0.98631,-0.40999 -1.85427,-0.81184 -2.60386,-1.20555 -0.7496,-0.39368 -1.14412,-0.92168 -1.18357,-1.584 0.0132,-0.5183 0.23624,-0.93314 0.66904,-1.24452 0.43279,-0.31136 0.99599,-0.47106 1.6896,-0.4791 0.55516,0.005 1.04371,0.11955 1.46565,0.34302 0.42192,0.2235 0.64399,0.52495 0.6662,0.90434 l 0,0.72573 2.67615,0 0,-1.49683 c -0.0242,-0.7603 -0.29834,-1.37404 -0.82233,-1.84122 -0.52401,-0.46715 -1.15259,-0.80705 -1.88574,-1.01972 -0.73316,-0.21264 -1.42558,-0.31736 -2.07725,-0.31415 -1.5833,0.026 -2.86751,0.45596 -3.85264,1.28988 -0.985127,0.83395 -1.492575,1.91594 -1.52234,3.24597 0.03945,1.23166 0.433976,2.20001 1.18357,2.90507 0.7496,0.70507 1.61755,1.27512 2.60386,1.71015 0.98631,0.43505 1.85426,0.86336 2.60386,1.28492 0.74959,0.42158 1.14412,0.9647 1.18358,1.62937 -0.0198,0.6251 -0.25232,1.09853 -0.69739,1.42028 -0.44509,0.32177 -0.98372,0.48336 -1.61589,0.48477 -0.75501,-0.0235 -1.42474,-0.18815 -2.00922,-0.4939 -0.58448,-0.30575 -1.04423,-0.6115 -1.37923,-0.91725 -0.33501,-0.30575 -0.50581,-0.47038 -0.51239,-0.4939 z"
     style="font-size:22.67953873px;font-variant:normal;font-weight:600;font-stretch:normal;writing-mode:lr-tb;fill:#ffffff;fill-opacity:1;fill-rule:nonzero;stroke:none;font-family:Museo 700;-inkscape-font-specification:Museo-700"
     id="path3287" /></g><g
   transform="matrix(0.89365424,-0.44875617,-0.44875617,-0.89365424,0,0)"
   style="font-size:12px"
   id="text3135"><path
     d="m 67.477909,-267.46561 6.03269,0 0,-2.5174 -1.610229,0 0,-11.06749 1.610229,0 0,-2.5174 -6.03269,0 0,2.5174 1.61023,0 0,11.06749 -1.61023,0 z"
     style="font-size:22.67957687px;font-variant:normal;font-weight:600;font-stretch:normal;writing-mode:lr-tb;fill:#ffffff;fill-opacity:1;fill-rule:nonzero;stroke:none;font-family:Museo 700;-inkscape-font-specification:Museo-700"
     id="path3284" /></g><g
   transform="matrix(0.78741856,-0.6164187,-0.6164187,-0.78741856,0,0)"
   style="font-size:12px"
   id="text3139"><path
     d="m 29.779888,-277.61133 2.970983,0 0,-13.58487 2.47204,0 c 0.159688,9.5e-4 0.282534,0.0444 0.368537,0.1304 0.08598,0.086 0.129449,0.20885 0.130406,0.36854 l 0,0.97521 2.608115,0 0,-2.54008 c 0.0075,-0.52681 -0.09829,-0.90196 -0.317509,-1.12546 -0.219247,-0.22347 -0.597234,-0.33214 -1.133963,-0.32601 l -11.226234,0 c -0.536744,-0.006 -0.914731,0.10254 -1.133963,0.32601 -0.219233,0.2235 -0.32507,0.59865 -0.31751,1.12546 l 0,2.54008 2.608115,0 0,-0.97521 c 9.43e-4,-0.15969 0.04441,-0.28253 0.130406,-0.36854 0.08599,-0.086 0.208835,-0.12945 0.368538,-0.1304 l 2.472039,0 z"
     style="font-size:22.67955208px;font-variant:normal;font-weight:600;font-stretch:normal;writing-mode:lr-tb;fill:#ffffff;fill-opacity:1;fill-rule:nonzero;stroke:none;font-family:Museo 700;-inkscape-font-specification:Museo-700"
     id="path3281" /></g><g
   transform="matrix(0.61907814,-0.78532939,-0.78532939,-0.61907814,0,0)"
   style="font-size:12px"
   id="text3143"><path
     d="m -18.781732,-279.29007 2.970979,0 0,-7.03056 3.810112,-6.01 c 0.136535,-0.22111 0.265996,-0.36852 0.388382,-0.44225 0.12236,-0.0737 0.302849,-0.10771 0.541467,-0.10205 l 0.521622,0 0,-2.5174 -1.519509,0 c -0.507459,-0.0146 -0.915685,0.0544 -1.224678,0.20695 -0.309016,0.15263 -0.603845,0.47675 -0.884491,0.97237 l -2.109168,3.53796 c -0.288696,0.49234 -0.522103,0.9138 -0.700222,1.26437 -0.178134,0.35059 -0.269795,0.53392 -0.274986,0.54997 l -0.04536,0 c -0.0052,-0.0175 -0.09687,-0.20363 -0.274986,-0.55847 -0.178133,-0.35483 -0.41154,-0.77345 -0.700221,-1.25587 l -2.131848,-3.53796 c -0.290582,-0.49562 -0.588247,-0.81974 -0.892996,-0.97237 -0.304754,-0.1526 -0.710145,-0.22158 -1.216173,-0.20695 l -1.519509,0 0,2.5174 0.521622,0 c 0.238604,-0.006 0.419093,0.0284 0.541467,0.10205 0.122373,0.0737 0.251833,0.22114 0.388382,0.44225 l 3.810112,6.01 z"
     style="font-size:22.67952728px;font-variant:normal;font-weight:600;font-stretch:normal;writing-mode:lr-tb;fill:#ffffff;fill-opacity:1;fill-rule:nonzero;stroke:none;font-family:Museo 700;-inkscape-font-specification:Museo-700"
     id="path3278" /></g><g
   transform="matrix(0.82206667,-0.56939125,-0.56939125,-0.82206667,0,0)"
   style="font-size:12px"
   id="text3147"><path
     d="m 36.114701,-106.98735 3.193932,0 0,-7.26559 7.631305,0 0,7.26559 3.193932,0 0,-14.06793 c 10e-4,-0.17167 0.04773,-0.30374 0.140192,-0.3962 0.09243,-0.0924 0.224493,-0.13916 0.396194,-0.14019 l 1.04839,0 0,-2.70631 -3.120789,0 c -0.570432,-0.003 -0.989991,0.13056 -1.258678,0.39924 -0.268715,0.26872 -0.401795,0.68828 -0.399241,1.25868 l 0,5.68081 -7.631305,0 0,-5.68081 c 0.0041,-0.5704 -0.125974,-0.98996 -0.390098,-1.25868 -0.264135,-0.26868 -0.686741,-0.40176 -1.267821,-0.39924 l -3.120789,0 0,2.70631 1.04839,0 c 0.171682,0.001 0.303747,0.0478 0.396194,0.14019 0.09244,0.0925 0.139173,0.22453 0.140192,0.3962 z"
     style="font-size:24.38147736px;font-variant:normal;font-weight:600;font-stretch:normal;writing-mode:lr-tb;fill:#ffffff;fill-opacity:1;fill-rule:nonzero;stroke:none;font-family:Museo 700;-inkscape-font-specification:Museo-700"
     id="path3275" /></g><g
   transform="matrix(0.94611727,-0.32382421,-0.32382421,-0.94611727,0,0)"
   style="font-size:12px"
   id="text3151"><path
     d="m 87.851688,-87.688133 1.926109,0 c 0.593272,0.0096 1.034163,-0.08889 1.322676,-0.295622 0.288506,-0.206731 0.522158,-0.579559 0.700958,-1.118484 l 1.072769,-3.023259 5.85147,0 1.07277,3.023259 c 0.179798,0.538926 0.41751,0.911754 0.71315,1.118484 0.29561,0.206732 0.74056,0.305272 1.33486,0.295622 l 1.90173,0 0,-2.706305 -0.3901,0 c -0.2037,0.0051 -0.36319,-0.02946 -0.47848,-0.10362 -0.11531,-0.07416 -0.20776,-0.218411 -0.27733,-0.432765 l -5.120037,-14.067907 -3.340214,0 -5.144418,14.067907 c -0.06959,0.214354 -0.162034,0.358609 -0.277335,0.432765 -0.115304,0.07416 -0.274797,0.108702 -0.47848,0.10362 l -0.390098,0 z m 5.753946,-7.070527 1.487249,-4.33984 c 0.167104,-0.523675 0.320502,-1.07327 0.460193,-1.64877 0.139676,-0.57549 0.213835,-0.88736 0.222478,-0.93563 l 0.04876,0 c 0.0086,0.0483 0.08279,0.36014 0.222478,0.93563 0.139675,0.57551 0.293073,1.125096 0.460194,1.64877 l 1.487249,4.33984 z"
     style="font-size:24.38143921px;font-variant:normal;font-weight:600;font-stretch:normal;writing-mode:lr-tb;fill:#ffffff;fill-opacity:1;fill-rule:nonzero;stroke:none;font-family:Museo 700;-inkscape-font-specification:Museo-700"
     id="path3272" /></g><g
   transform="matrix(0.99773963,-0.06719846,-0.06719846,-0.99773963,0,0)"
   style="font-size:12px"
   id="text3155"><path
     d="m 131.31582,-65.469371 c 0.0401,2.618953 0.86197,4.774655 2.46555,6.467112 1.60356,1.692462 3.74809,2.568153 6.43358,2.627074 1.49071,-0.03672 2.75431,-0.293779 3.79083,-0.771168 1.03649,-0.477389 1.82511,-0.954779 2.36588,-1.43217 0.54073,-0.477387 0.81284,-0.734443 0.81632,-0.771168 l -1.68231,-2.291832 c -0.004,0.0283 -0.21523,0.226358 -0.633,0.594178 -0.41781,0.367829 -1.0171,0.735654 -1.79789,1.103475 -0.78081,0.367828 -1.71783,0.565888 -2.81106,0.594179 -1.61069,-0.04317 -2.94252,-0.639495 -3.99547,-1.78897 -1.05297,-1.149467 -1.5985,-2.593035 -1.63659,-4.33071 0.0371,-1.821468 0.57245,-3.243703 1.60611,-4.26671 1.03366,-1.02298 2.34313,-1.543112 3.92842,-1.560397 0.81067,-0.002 1.59696,0.148334 2.35888,0.451052 0.7619,0.302747 1.17029,0.770053 1.22516,1.401919 l 0,0.975248 2.90136,0 0,-1.926114 c -0.0399,-0.976588 -0.44234,-1.748658 -1.20732,-2.316214 -0.76501,-0.567524 -1.65327,-0.971168 -2.66478,-1.210933 -1.01153,-0.239732 -1.90701,-0.356219 -2.68644,-0.349464 -2.56308,0.05437 -4.65377,0.896534 -6.27207,2.526502 -1.6183,1.629998 -2.45335,3.7217 -2.50516,6.275111 z"
     style="font-size:24.38151169px;font-variant:normal;font-weight:600;font-stretch:normal;writing-mode:lr-tb;fill:#ffffff;fill-opacity:1;fill-rule:nonzero;stroke:none;font-family:Museo 700;-inkscape-font-specification:Museo-700"
     id="path3269" /></g><g
   transform="matrix(0.98206295,0.18855333,0.18855333,-0.98206295,0,0)"
   style="font-size:12px"
   id="text3159"><path
     d="m 167.46991,-16.350079 3.19393,0 0,-7.558146 1.02401,0 c 0.34336,-0.01066 0.64406,0.01677 0.9021,0.08229 0.25802,0.06553 0.4612,0.233152 0.60953,0.502861 l 2.82821,5.6808 c 0.26513,0.544513 0.57599,0.90007 0.93257,1.066674 0.35657,0.166604 0.85028,0.241779 1.48116,0.225525 l 1.82858,0 0,-2.706304 -0.46324,0 c -0.28091,0.0086 -0.5237,-0.02082 -0.72839,-0.08838 -0.20471,-0.06755 -0.36827,-0.225015 -0.49067,-0.472384 l -2.1943,-4.412983 c -0.28141,-0.50844 -0.53538,-0.838601 -0.76191,-0.990483 -0.22655,-0.151865 -0.34642,-0.219929 -0.35962,-0.204191 l 0,-0.04876 c 0.0122,0.0081 0.12799,-0.08126 0.34743,-0.268192 0.21942,-0.186912 0.46933,-0.520121 0.74972,-0.999626 l 3.90098,-7.119286 -3.51088,0 -3.4865,6.485377 c -0.1463,0.247377 -0.33525,0.404838 -0.56686,0.472384 -0.23163,0.06757 -0.50592,0.09703 -0.82286,0.08838 l -1.21906,0 0,-5.388227 c 0.004,-0.570401 -0.12597,-0.989959 -0.3901,-1.258676 -0.26413,-0.268683 -0.68674,-0.401763 -1.26782,-0.39924 l -3.12078,0 0,2.706304 1.04839,0 c 0.17168,0.001 0.30374,0.04776 0.39619,0.140192 0.0924,0.09246 0.13917,0.224523 0.14019,0.396193 z"
     style="font-size:24.38143158px;font-variant:normal;font-weight:600;font-stretch:normal;writing-mode:lr-tb;fill:#ffffff;fill-opacity:1;fill-rule:nonzero;stroke:none;font-family:Museo 700;-inkscape-font-specification:Museo-700"
     id="path3266" /></g><g
   transform="matrix(0.90834602,0.41821946,0.41821946,-0.90834602,0,0)"
   style="font-size:12px"
   id="text3163"><path
     d="m 189.06017,26.51568 c -0.004,0.581085 0.12597,1.003691 0.3901,1.267819 0.26413,0.264129 0.68673,0.394162 1.26782,0.390098 l 7.85073,0 c 0.5704,0.0041 0.98996,-0.125969 1.25867,-0.390098 0.26869,-0.264129 0.40177,-0.686735 0.39925,-1.267819 l 0,-2.633164 -2.90136,0 0,1.048389 c -0.001,0.171687 -0.0478,0.303751 -0.14019,0.396193 -0.0925,0.09245 -0.22452,0.139179 -0.3962,0.140192 l -3.9985,0 c -0.17169,-0.001 -0.30376,-0.04774 -0.3962,-0.140191 -0.0925,-0.09244 -0.13918,-0.224507 -0.14019,-0.396194 l 0,-4.120413 5.60767,0 0,-2.706307 -5.60767,0 0,-4.534893 3.90098,0 c 0.17168,0.001 0.30374,0.04776 0.3962,0.140192 0.0924,0.09246 0.13916,0.224523 0.14019,0.396193 l 0,1.048389 2.90136,0 0,-2.633163 c 0.003,-0.570401 -0.13056,-0.98996 -0.39925,-1.258677 -0.26871,-0.268684 -0.68827,-0.401764 -1.25867,-0.399241 l -10.45951,0 0,2.706307 1.58477,0 z"
     style="font-size:24.38145828px;font-variant:normal;font-weight:600;font-stretch:normal;writing-mode:lr-tb;fill:#ffffff;fill-opacity:1;fill-rule:nonzero;stroke:none;font-family:Museo 700;-inkscape-font-specification:Museo-700"
     id="path3263" /></g><g
   transform="matrix(0.77529286,0.63160192,0.63160192,-0.77529286,0,0)"
   style="font-size:12px"
   id="text3167"><path
     d="m 197.34617,76.869042 c -0.004,0.581086 0.12597,1.003693 0.3901,1.267821 0.26413,0.26413 0.68673,0.394163 1.26782,0.390099 l 3.80347,0 c 2.70376,-0.02032 4.84219,-0.78426 6.41529,-2.291831 1.57308,-1.507566 2.37665,-3.636854 2.41069,-6.38787 -0.034,-2.748966 -0.83761,-4.870127 -2.41069,-6.363488 -1.5731,-1.493331 -3.71153,-2.249147 -6.41529,-2.26745 l -7.04617,0 0,2.706311 1.58478,0 z m 3.19394,-1.584777 0,-11.361631 2.09678,0 c 1.73004,0.0061 3.10351,0.512019 4.12042,1.517729 1.01688,1.005735 1.53701,2.4747 1.56039,4.406898 -0.0203,1.955581 -0.53436,3.438768 -1.54211,4.449566 -1.00776,1.010806 -2.38733,1.518747 -4.1387,1.523824 l -1.5604,0 c -0.17169,-0.001 -0.30375,-0.04774 -0.39619,-0.140192 -0.0924,-0.09244 -0.13918,-0.224507 -0.14019,-0.396194 z"
     style="font-size:24.38149643px;font-variant:normal;font-weight:600;font-stretch:normal;writing-mode:lr-tb;fill:#ffffff;fill-opacity:1;fill-rule:nonzero;stroke:none;font-family:Museo 700;-inkscape-font-specification:Museo-700"
     id="path3260" /></g>


</g></svg>